<svg width="373" height="282" viewBox="0 0 373 282" fill="none" xmlns="http://www.w3.org/2000/svg">
<path d="M56.8891 268.034C56.6807 268.478 56.2116 268.724 55.7425 268.724C55.5601 268.724 55.3777 268.7 55.2213 268.626C52.902 267.614 50.6347 266.553 48.4196 265.443C47.7942 265.122 47.5596 264.407 47.8984 263.815C48.2372 263.223 48.9929 263.001 49.6184 263.321C51.7553 264.407 53.9965 265.468 56.2637 266.455C56.8891 266.726 57.1758 267.441 56.8891 268.034ZM52.4589 81.5153C52.902 80.9972 52.7977 80.2324 52.2505 79.8376C51.7032 79.4182 50.8953 79.5169 50.4784 80.035C48.8887 81.91 47.3512 83.7851 45.8657 85.6602C45.4488 86.1783 45.553 86.9431 46.1003 87.3378C46.3348 87.5105 46.5954 87.5846 46.856 87.5846C47.2469 87.5846 47.6118 87.4118 47.8724 87.1158C49.3578 85.2654 50.8953 83.3903 52.4589 81.54V81.5153ZM43.2076 259.793C41.0967 258.535 39.038 257.203 37.0835 255.846C36.5102 255.451 35.7284 255.574 35.3114 256.092C34.8944 256.635 35.0247 257.375 35.572 257.77C37.5786 259.176 39.6895 260.533 41.8525 261.816C42.061 261.94 42.2955 261.989 42.53 261.989C42.947 261.989 43.364 261.792 43.5985 261.422C43.9633 260.854 43.807 260.114 43.2076 259.769V259.793ZM34.5296 102.758C33.9563 102.388 33.1484 102.56 32.7836 103.103C31.3763 105.126 30.0212 107.125 28.7182 109.123C28.3534 109.69 28.5358 110.431 29.1352 110.776C29.3436 110.899 29.5782 110.949 29.8127 110.949C30.2297 110.949 30.6467 110.751 30.8812 110.381C32.1842 108.407 33.5133 106.409 34.8944 104.411C35.2853 103.868 35.129 103.103 34.5296 102.758ZM25.9558 246.668C25.4607 246.199 24.6528 246.174 24.1577 246.668C23.6625 247.137 23.6365 247.901 24.1577 248.37C25.9037 250.073 27.754 251.726 29.6824 253.305C29.917 253.502 30.2297 253.601 30.5163 253.601C30.8812 253.601 31.22 253.453 31.4806 253.181C31.9497 252.688 31.8715 251.923 31.3503 251.479C29.4739 249.949 27.6758 248.321 25.9819 246.668H25.9558ZM70.0755 58.3732C68.3556 60.1496 66.6877 61.9013 65.0199 63.653C64.5508 64.1464 64.6029 64.9112 65.1241 65.3553C65.3587 65.5527 65.6714 65.6514 65.9581 65.6514C66.2968 65.6514 66.6617 65.5033 66.8962 65.2566C68.538 63.5049 70.2058 61.7533 71.8997 60.0016C72.3688 59.5081 72.3428 58.7433 71.8216 58.2992C71.3004 57.8551 70.4925 57.8798 70.0234 58.3732H70.0755ZM84.4868 275.139C82.0371 274.646 79.6135 274.078 77.2421 273.486C76.5645 273.289 75.8609 273.708 75.6785 274.325C75.496 274.966 75.913 275.632 76.5906 275.78C78.9881 276.397 81.4638 276.94 83.9395 277.458C84.0177 277.458 84.1219 277.483 84.2001 277.483C84.7734 277.483 85.3207 277.088 85.451 276.545C85.6073 275.904 85.1643 275.262 84.4868 275.114V275.139ZM61.8666 68.9081C61.3454 68.4886 60.5376 68.538 60.0685 69.0314C58.4267 70.8571 56.811 72.6828 55.2213 74.4839C54.7783 75.002 54.8565 75.7421 55.3777 76.1862C55.6122 76.3589 55.8989 76.4576 56.1855 76.4576C56.5504 76.4576 56.9152 76.3096 57.1758 76.0135C58.7394 74.2125 60.3551 72.4114 61.9969 70.5857C62.4399 70.0923 62.3878 69.3275 61.8666 68.8834V68.9081ZM92.852 37.9944C92.3569 37.5256 91.549 37.5009 91.0539 37.9697C89.2297 39.6474 87.4576 41.3004 85.6855 42.9534C85.1904 43.4222 85.1904 44.187 85.6855 44.6557C85.9201 44.9025 86.2588 45.0011 86.5716 45.0011C86.8843 45.0011 87.2231 44.8778 87.4576 44.6557C89.2036 43.0027 90.9757 41.3497 92.7999 39.6967C93.2951 39.228 93.3211 38.4631 92.826 37.9944H92.852ZM70.1277 271.512C67.7301 270.772 65.3847 269.983 63.1175 269.168C62.466 268.922 61.7363 269.242 61.4757 269.859C61.2151 270.476 61.5539 271.167 62.2054 271.414C64.4987 272.252 66.8962 273.067 69.3459 273.807C69.4762 273.856 69.6065 273.856 69.7368 273.856C70.284 273.856 70.7792 273.535 70.9355 273.017C71.144 272.376 70.7792 271.71 70.1277 271.512ZM77.0596 54.8205C78.7535 53.1181 80.4735 51.4158 82.2456 49.7134C82.7407 49.2447 82.7147 48.4799 82.2456 48.0111C81.7505 47.5423 80.9426 47.567 80.4475 48.0111C78.6754 49.7381 76.9293 51.4405 75.2354 53.1428C74.7664 53.6362 74.7664 54.3764 75.2876 54.8452C75.5221 55.0672 75.8348 55.1659 76.1475 55.1659C76.4863 55.1659 76.8251 55.0425 77.0596 54.7958V54.8205ZM1.27694 190.663C1.98057 190.663 2.52783 190.145 2.55389 189.479C2.55389 187.16 2.68419 184.816 2.86661 182.472C2.91873 181.806 2.39753 181.238 1.6939 181.189C1.01634 181.164 0.390901 181.633 0.338781 182.299C0.1303 184.692 0.0260601 187.11 0 189.479C0 190.145 0.547262 190.688 1.25088 190.688L1.27694 190.663ZM3.54417 203.443C3.17933 201.173 2.91873 198.829 2.76237 196.486C2.71025 195.819 2.11087 195.326 1.40724 195.375C0.703622 195.425 0.182421 195.992 0.234541 196.658C0.390901 199.051 0.677562 201.469 1.0424 203.813C1.14664 204.405 1.66784 204.849 2.29329 204.849C2.34541 204.849 2.42359 204.849 2.47571 204.849C3.17933 204.751 3.64841 204.134 3.54417 203.492V203.443ZM2.26723 176.501C2.26723 176.501 2.39753 176.501 2.44965 176.501C3.07509 176.501 3.62235 176.057 3.70053 175.465C4.03931 173.195 4.45627 170.852 4.95141 168.532C5.08171 167.891 4.63869 167.25 3.96113 167.126C3.28357 167.003 2.60601 167.422 2.47571 168.064C1.98057 170.432 1.53754 172.801 1.19876 175.12C1.09452 175.786 1.58966 176.378 2.26723 176.477V176.501ZM5.08171 162.562C5.08171 162.562 5.2902 162.611 5.39444 162.611C5.96776 162.611 6.4629 162.241 6.61926 161.723C7.21864 159.503 7.92226 157.208 8.67801 154.963C8.88649 154.322 8.52164 153.655 7.84408 153.458C7.16652 153.261 6.4629 153.606 6.25442 154.248C5.49868 156.542 4.79505 158.861 4.16961 161.131C3.98719 161.772 4.40415 162.439 5.08171 162.587V162.562ZM38.0477 99.0569C38.4386 99.0569 38.8556 98.8842 39.0901 98.5388C40.4974 96.6391 41.9307 94.7147 43.4161 92.7656C43.833 92.2228 43.7028 91.4827 43.1294 91.0879C42.5561 90.6932 41.7743 90.8165 41.3573 91.3593C39.8459 93.3084 38.4126 95.2328 37.0053 97.1819C36.6144 97.7246 36.7447 98.4648 37.318 98.8595C37.5265 99.0076 37.7871 99.0816 38.0477 99.0816V99.0569ZM16.6524 235.837C16.2615 235.294 15.4797 235.146 14.8803 235.516C14.307 235.886 14.1506 236.626 14.5415 237.194C15.9488 239.168 17.4863 241.117 19.076 242.967C19.3366 243.263 19.7014 243.411 20.0663 243.411C20.3529 243.411 20.6396 243.313 20.8741 243.14C21.4214 242.72 21.4996 241.956 21.0565 241.462C19.4929 239.661 18.0075 237.761 16.6524 235.862V235.837ZM15.0627 135.818C15.2451 135.892 15.4015 135.916 15.5839 135.916C16.0791 135.916 16.5221 135.645 16.7306 135.226C17.7469 133.129 18.8154 131.007 19.936 128.86C20.2487 128.268 19.9881 127.553 19.3626 127.257C18.7372 126.961 17.9815 127.207 17.6687 127.799C16.5221 129.971 15.4276 132.117 14.4112 134.239C14.1246 134.831 14.4112 135.546 15.0367 135.818H15.0627ZM4.95141 210.326C4.79505 209.685 4.11749 209.266 3.43993 209.438C2.76237 209.586 2.34541 210.228 2.50177 210.869C3.07509 213.213 3.77871 215.557 4.56051 217.802C4.74293 218.295 5.23808 218.616 5.75928 218.616C5.88958 218.616 6.01988 218.616 6.15018 218.567C6.80168 218.369 7.16652 217.679 6.95804 217.062C6.2023 214.866 5.52474 212.596 4.95141 210.326ZM13.0822 140.135C12.4307 139.889 11.701 140.185 11.4404 140.777C10.4762 143.022 9.56405 145.242 8.70407 147.438C8.46952 148.055 8.80831 148.746 9.45981 148.968C9.59011 149.017 9.74647 149.042 9.90283 149.042C10.424 149.042 10.9192 148.746 11.1016 148.252C11.9355 146.081 12.8216 143.885 13.7858 141.665C14.0464 141.048 13.7337 140.357 13.1082 140.111L13.0822 140.135ZM9.56405 223.6C9.27739 222.983 8.5477 222.712 7.8962 222.983C7.2447 223.254 6.95804 223.945 7.2447 224.562C8.26104 226.758 9.38163 228.929 10.6065 231.051C10.841 231.445 11.258 231.667 11.727 231.667C11.9355 231.667 12.144 231.618 12.3264 231.519C12.9519 231.199 13.1603 230.483 12.8216 229.891C11.6489 227.843 10.5543 225.746 9.56405 223.624V223.6ZM26.6073 114.797C26.008 114.452 25.2262 114.649 24.8613 115.242C23.5844 117.339 22.3595 119.411 21.1608 121.459C20.822 122.051 21.0565 122.766 21.682 123.087C21.8644 123.186 22.0729 123.235 22.2814 123.235C22.7244 123.235 23.1674 123.013 23.4019 122.618C24.5747 120.571 25.7995 118.523 27.0504 116.45C27.4152 115.883 27.2067 115.143 26.5813 114.822L26.6073 114.797ZM270.842 238.576C268.653 239.735 266.464 240.845 264.275 241.956C263.65 242.276 263.415 242.992 263.754 243.584C263.989 243.979 264.432 244.225 264.875 244.225C265.083 244.225 265.292 244.176 265.474 244.077C267.663 242.967 269.878 241.832 272.093 240.673C272.693 240.352 272.927 239.612 272.588 239.044C272.25 238.477 271.468 238.255 270.868 238.576H270.842ZM244.157 251.38C241.864 252.367 239.596 253.329 237.329 254.267C236.678 254.538 236.391 255.229 236.678 255.846C236.886 256.29 237.355 256.561 237.85 256.561C238.007 256.561 238.189 256.537 238.345 256.463C240.639 255.525 242.932 254.538 245.225 253.551C245.851 253.28 246.137 252.564 245.851 251.972C245.564 251.38 244.808 251.109 244.183 251.38H244.157ZM257.63 245.212C255.389 246.298 253.148 247.334 250.932 248.346C250.307 248.642 250.046 249.357 250.333 249.949C250.542 250.369 251.011 250.615 251.48 250.615C251.662 250.615 251.845 250.566 252.027 250.492C254.268 249.456 256.509 248.42 258.777 247.334C259.402 247.038 259.637 246.322 259.324 245.73C259.011 245.138 258.255 244.891 257.63 245.212ZM202.33 266.652C199.933 267.367 197.535 268.034 195.164 268.675C194.486 268.848 194.095 269.514 194.304 270.155C194.46 270.673 194.981 271.019 195.529 271.019C195.633 271.019 195.763 271.019 195.868 270.97C198.265 270.328 200.663 269.637 203.086 268.922C203.764 268.724 204.129 268.058 203.92 267.417C203.712 266.775 203.008 266.43 202.33 266.627V266.652ZM230.449 257.03C228.13 257.943 225.811 258.806 223.491 259.645C222.84 259.892 222.501 260.583 222.762 261.2C222.944 261.668 223.439 261.964 223.934 261.964C224.091 261.964 224.247 261.94 224.403 261.89C226.723 261.051 229.068 260.163 231.387 259.25C232.039 259.004 232.352 258.288 232.065 257.696C231.804 257.079 231.049 256.783 230.423 257.055L230.449 257.03ZM216.507 262.137C214.136 262.951 211.79 263.716 209.445 264.481C208.793 264.703 208.428 265.369 208.637 266.011C208.819 266.504 209.315 266.825 209.836 266.825C209.966 266.825 210.096 266.825 210.253 266.751C212.624 265.986 214.996 265.221 217.367 264.407C218.019 264.185 218.357 263.494 218.123 262.877C217.888 262.26 217.159 261.94 216.507 262.162V262.137ZM283.794 231.47C281.631 232.704 279.494 233.888 277.357 235.072C276.758 235.393 276.55 236.133 276.888 236.7C277.123 237.095 277.54 237.293 277.983 237.293C278.191 237.293 278.426 237.243 278.608 237.12C280.771 235.936 282.934 234.727 285.097 233.493C285.697 233.148 285.879 232.408 285.54 231.84C285.175 231.273 284.394 231.1 283.794 231.421V231.47ZM308.864 216.001C306.805 217.358 304.747 218.69 302.688 220.022C302.114 220.392 301.958 221.133 302.349 221.7C302.584 222.045 303.001 222.218 303.391 222.218C303.626 222.218 303.887 222.144 304.095 222.021C306.154 220.689 308.239 219.356 310.297 217.975C310.871 217.605 311.001 216.84 310.61 216.297C310.219 215.754 309.411 215.631 308.838 216.001H308.864ZM322.754 207.933C322.337 207.415 321.529 207.292 320.982 207.687C318.975 209.117 316.969 210.499 314.962 211.881C314.389 212.275 314.258 213.016 314.675 213.558C314.936 213.879 315.301 214.052 315.692 214.052C315.952 214.052 316.213 213.978 316.448 213.83C318.454 212.448 320.487 211.042 322.493 209.611C323.041 209.216 323.171 208.451 322.754 207.933ZM296.459 223.945C294.349 225.253 292.264 226.511 290.153 227.769C289.554 228.115 289.371 228.855 289.762 229.422C289.997 229.792 290.413 229.99 290.83 229.99C291.065 229.99 291.3 229.94 291.508 229.817C293.619 228.559 295.73 227.276 297.841 225.968C298.44 225.598 298.596 224.858 298.205 224.315C297.815 223.773 297.033 223.6 296.459 223.97V223.945ZM114.065 278.667C111.563 278.568 109.087 278.42 106.612 278.223C105.882 278.124 105.309 278.667 105.257 279.309C105.205 279.975 105.726 280.542 106.403 280.592C108.879 280.789 111.407 280.937 113.935 281.036H113.987C114.664 281.036 115.212 280.542 115.264 279.901C115.29 279.235 114.743 278.667 114.065 278.642V278.667ZM126.209 11.2009C126.756 10.7814 126.808 10.0166 126.365 9.49852C125.922 9.00509 125.114 8.93107 124.567 9.35049C122.639 10.9048 120.736 12.4345 118.86 13.9641C118.339 14.4082 118.261 15.1483 118.73 15.6665C118.99 15.9378 119.329 16.0859 119.694 16.0859C119.981 16.0859 120.293 15.9872 120.528 15.7898C122.404 14.2602 124.307 12.7305 126.235 11.1762L126.209 11.2009ZM113.179 18.6517C111.277 20.2307 109.4 21.8097 107.576 23.3887C107.055 23.8328 107.003 24.5976 107.472 25.0911C107.732 25.3624 108.071 25.4858 108.41 25.4858C108.723 25.4858 109.009 25.3871 109.27 25.1897C111.094 23.6108 112.97 22.0564 114.873 20.4774C115.394 20.0334 115.446 19.2932 114.977 18.7751C114.508 18.2817 113.7 18.2323 113.179 18.6764V18.6517ZM187.945 270.525C185.522 271.118 183.098 271.685 180.701 272.228C180.023 272.376 179.606 273.017 179.762 273.659C179.893 274.202 180.414 274.596 180.987 274.596C181.091 274.596 181.17 274.596 181.274 274.572C183.697 274.029 186.147 273.461 188.597 272.869C189.274 272.697 189.691 272.055 189.509 271.414C189.326 270.772 188.623 270.377 187.971 270.55L187.945 270.525ZM128.971 278.766C127.043 278.815 125.14 278.84 123.264 278.84H121.518C120.867 278.741 120.241 279.358 120.241 280.024C120.241 280.69 120.788 281.233 121.492 281.233H123.264C125.167 281.233 127.095 281.233 129.049 281.159C129.753 281.159 130.3 280.592 130.274 279.925C130.274 279.259 129.701 278.766 128.971 278.766ZM99.2107 277.483C96.7089 277.187 94.2593 276.841 91.8357 276.471C91.1581 276.373 90.4806 276.792 90.3763 277.458C90.246 278.124 90.7151 278.741 91.4187 278.84C93.8684 279.235 96.3702 279.58 98.898 279.876C98.9501 279.876 99.0022 279.876 99.0543 279.876C99.6798 279.876 100.227 279.432 100.305 278.815C100.383 278.149 99.8883 277.557 99.2107 277.483ZM102.025 28.175C100.175 29.8034 98.3247 31.4317 96.5265 33.0354C96.0314 33.5041 96.0053 34.2443 96.4744 34.7377C96.735 34.9844 97.0477 35.1078 97.3865 35.1078C97.6992 35.1078 98.0119 35.0091 98.2465 34.787C100.045 33.1834 101.869 31.5551 103.719 29.9514C104.24 29.5073 104.266 28.7425 103.797 28.249C103.328 27.7556 102.52 27.7309 101.999 28.175H102.025ZM158.706 276.225C156.23 276.57 153.754 276.891 151.305 277.187C150.601 277.261 150.106 277.853 150.21 278.519C150.288 279.136 150.836 279.58 151.461 279.58C151.513 279.58 151.565 279.58 151.618 279.58C154.093 279.309 156.569 278.988 159.097 278.618C159.8 278.519 160.269 277.902 160.165 277.261C160.061 276.595 159.436 276.151 158.732 276.249L158.706 276.225ZM173.404 273.733C170.954 274.202 168.504 274.67 166.055 275.065C165.377 275.188 164.908 275.805 165.038 276.447C165.143 277.039 165.69 277.434 166.289 277.434C166.368 277.434 166.446 277.434 166.524 277.434C168.974 277.014 171.449 276.57 173.925 276.077C174.603 275.953 175.046 275.312 174.915 274.646C174.785 274.004 174.107 273.585 173.43 273.708L173.404 273.733ZM137.936 0.444001C137.493 -0.0741052 136.685 -0.148129 136.164 0.27129C134.209 1.77627 132.255 3.28125 130.352 4.78622C129.805 5.20564 129.727 5.97046 130.196 6.48857C130.457 6.78463 130.822 6.93266 131.186 6.93266C131.473 6.93266 131.76 6.83397 131.994 6.66127C133.897 5.15629 135.825 3.67599 137.78 2.17101C138.327 1.7516 138.405 0.986771 137.962 0.493336L137.936 0.444001ZM143.852 277.927C141.35 278.149 138.874 278.322 136.398 278.445C135.695 278.494 135.174 279.062 135.2 279.703C135.252 280.345 135.799 280.838 136.451 280.838H136.529C139.004 280.69 141.532 280.517 144.06 280.295C144.764 280.246 145.259 279.654 145.207 278.988C145.155 278.322 144.529 277.878 143.826 277.902L143.852 277.927Z" fill="white"/>
<path d="M364.937 183.625C368.655 180.692 372.688 176.457 372.038 175.669C371.387 174.881 366.313 177.814 362.595 180.765C362.261 181.04 361.926 181.297 361.61 181.553C360.959 181.443 359.603 181.223 357.874 180.948C357.892 180.948 357.93 180.948 357.948 180.948L358.952 180.16C359.082 180.068 359.082 179.867 358.952 179.738L358.171 178.785C358.06 178.639 357.874 178.602 357.744 178.712L356.74 179.5C356.74 179.5 356.666 179.61 356.647 179.683L355.476 180.6C354.008 180.362 352.409 180.105 350.829 179.848L351.814 179.079C351.944 178.987 351.944 178.785 351.814 178.657L351.034 177.704C350.922 177.557 350.736 177.52 350.606 177.63L349.602 178.419C349.602 178.419 349.528 178.529 349.509 178.602L348.376 179.482C344.361 178.84 340.996 178.327 340.885 178.364C340.606 178.455 339.175 179.665 339.175 179.665C338.822 179.94 338.58 180.197 338.599 180.233C338.636 180.27 339.045 179.995 339.379 179.738L346.759 182.396C346.498 182.635 346.35 182.855 346.405 182.928C346.48 183.02 346.814 182.855 347.149 182.58L347.186 182.543L348.636 183.075C348.394 183.295 348.246 183.515 348.301 183.588C348.376 183.68 348.71 183.515 349.045 183.24L350.365 183.698L351.164 184.266C350.866 184.523 350.662 184.779 350.718 184.853C350.792 184.944 351.127 184.779 351.461 184.504H351.48L353.06 185.604C352.762 185.861 352.558 186.118 352.632 186.191C352.707 186.282 353.041 186.118 353.376 185.843L354.826 186.869C352.353 188.867 351.387 189.674 349.547 191.14C347.688 192.607 345.996 194.146 344.64 195.521C342.446 195.191 338.115 194.476 338.115 194.476L337 195.209L341.703 198.802C341.442 199.151 341.238 199.426 341.126 199.646C340.402 200.305 339.974 200.745 340.03 200.819C340.086 200.892 340.606 200.599 341.387 200.049C341.628 199.975 341.963 199.81 342.39 199.609L344.937 204.98L345.922 204.082C345.922 204.082 346.182 199.462 346.331 197.354C347.93 196.364 349.751 195.191 351.647 193.89C353.952 192.075 354.993 191.305 357.13 189.655L357.818 191.268C357.465 191.562 357.242 191.837 357.316 191.928C357.372 192.002 357.669 191.873 358.004 191.635L358.766 193.413H358.748C358.394 193.706 358.171 194 358.246 194.073C358.301 194.146 358.617 194.018 358.933 193.78L359.324 194.66L359.51 196.034C359.156 196.309 358.933 196.603 359.008 196.694C359.064 196.768 359.305 196.676 359.584 196.474L359.788 197.996H359.751C359.398 198.289 359.175 198.582 359.249 198.674C359.305 198.747 359.565 198.637 359.844 198.436L360.848 206.116C360.532 206.391 360.16 206.721 360.179 206.758C360.216 206.794 360.513 206.611 360.867 206.336C360.867 206.336 362.391 205.218 362.521 204.98C362.577 204.888 362.8 201.534 363.06 197.537L364.194 196.658C364.194 196.658 364.342 196.658 364.398 196.621L365.402 195.833C365.532 195.741 365.532 195.539 365.402 195.411L364.621 194.458C364.51 194.311 364.324 194.275 364.194 194.385L363.209 195.155C363.301 193.578 363.394 192.002 363.487 190.517L364.658 189.6C364.658 189.6 364.807 189.6 364.863 189.564L365.867 188.775C365.997 188.684 365.997 188.482 365.867 188.354L365.086 187.401C364.974 187.254 364.789 187.217 364.658 187.327L363.655 188.116C363.655 188.116 363.655 188.152 363.617 188.189C363.729 186.484 363.803 185.146 363.841 184.486C364.157 184.229 364.491 183.973 364.844 183.698L364.937 183.625Z" fill="white"/>
</svg>
