<svg width="223" height="313" viewBox="0 0 223 313" fill="none" xmlns="http://www.w3.org/2000/svg">
<path d="M42.1256 247.089C42.1256 240.797 36.9519 235.695 30.5718 235.695C24.1917 235.695 19.0181 240.797 19.0181 247.089C19.0181 247.089 18.496 251.048 23.0665 257.477C25.1197 260.371 30.5718 268.962 30.5718 268.962C30.5718 268.962 36.0239 260.371 38.0772 257.477C42.6476 251.048 42.1256 247.089 42.1256 247.089ZM30.5718 255.601C25.9202 255.601 22.1501 251.883 22.1501 247.295C22.1501 242.708 25.9202 238.99 30.5718 238.99C35.2235 238.99 38.9936 242.708 38.9936 247.295C38.9936 251.883 35.2235 255.601 30.5718 255.601Z" fill="white"/>
<path d="M57.3092 29.2604C54.7651 27.837 52.1885 26.4137 49.5792 25.0167C48.8616 24.6213 48.6333 23.8305 49.1225 23.2506C49.6118 22.6707 50.5903 22.4862 51.3078 22.8816C53.9498 24.2786 56.559 25.702 59.103 27.1517C59.8206 27.5471 60.0164 28.3642 59.4945 28.9441C59.201 29.3131 58.679 29.4976 58.1898 29.4976C57.8636 29.4976 57.5701 29.4186 57.2765 29.2604H57.3092ZM43.4147 18.7433C40.7728 17.399 38.0983 16.0547 35.3912 14.7368C34.641 14.3677 33.6626 14.5522 33.206 15.1849C32.7493 15.7911 33.0102 16.5819 33.7604 16.9509C36.4349 18.2688 39.1094 19.5868 41.7187 20.9311C41.9796 21.0629 42.2732 21.1419 42.5668 21.1419C43.0886 21.1419 43.6105 20.9311 43.904 20.5357C44.3607 19.9294 44.1649 19.1387 43.4147 18.7696V18.7433ZM102.319 57.8069C102.743 57.8069 103.167 57.6751 103.494 57.3852C104.081 56.858 104.048 56.0409 103.396 55.5664C101.08 53.8794 98.7316 52.1925 96.3507 50.5055C95.6983 50.0311 94.6872 50.1102 94.1001 50.6373C93.5131 51.1645 93.6109 51.9816 94.2632 52.4561C96.6442 54.1167 98.9599 55.8036 101.243 57.4906C101.537 57.7278 101.928 57.8333 102.319 57.8333V57.8069ZM90.1536 290.08C87.577 288.762 84.9677 287.391 82.3258 285.968C81.6082 285.573 80.6297 285.731 80.1078 286.311C79.6186 286.891 79.8143 287.681 80.5318 288.103C83.2064 289.553 85.8483 290.95 88.425 292.268C88.6859 292.399 88.9794 292.452 89.2729 292.452C89.7948 292.452 90.3167 292.241 90.6102 291.846C91.0668 291.24 90.8385 290.449 90.121 290.08H90.1536ZM27.2698 10.9147C24.5627 9.64953 21.8229 8.41067 19.0505 7.19817C18.2677 6.8555 17.3219 7.09273 16.8979 7.69898C16.4739 8.33159 16.7674 9.09599 17.5175 9.43866C20.2573 10.6512 22.997 11.89 25.6716 13.1289C25.9325 13.2343 26.1935 13.287 26.4544 13.287C27.0089 13.287 27.5307 13.0498 27.8242 12.6544C28.2482 12.0482 27.9873 11.2574 27.2372 10.9147H27.2698ZM88.1314 47.8697C88.5881 47.8697 89.0447 47.7115 89.3382 47.3952C89.8927 46.8417 89.7949 46.0509 89.1425 45.6028C86.7289 43.9949 84.3153 42.3871 81.8365 40.8055C81.1515 40.3838 80.1404 40.4629 79.6186 41.0164C79.0641 41.5699 79.1946 42.3871 79.8796 42.8088C82.3258 44.3903 84.7393 45.9718 87.1529 47.5797C87.4464 47.7906 87.8052 47.8697 88.164 47.8697H88.1314ZM67.1592 277.138C66.4743 276.716 65.4632 276.821 64.9414 277.375C64.4195 277.929 64.5499 278.746 65.2349 279.167C67.7789 280.749 70.323 282.251 72.8018 283.701C73.0954 283.859 73.4215 283.938 73.7151 283.938C74.2043 283.938 74.6936 283.754 74.9872 283.411C75.509 282.831 75.3459 282.04 74.6283 281.619C72.1495 280.169 69.6381 278.667 67.1267 277.111L67.1592 277.138ZM72.4431 38.1697C72.7367 38.3542 73.0627 38.4332 73.3889 38.4332C73.8781 38.4332 74.3348 38.2487 74.661 37.9324C75.1828 37.3789 75.0524 36.5618 74.3674 36.14C71.8886 34.6112 69.3445 33.1088 66.8005 31.6063C66.1156 31.1846 65.1045 31.3164 64.5826 31.8963C64.0608 32.4762 64.2238 33.2669 64.9414 33.6887C67.4854 35.1648 69.9969 36.6672 72.4431 38.196V38.1697ZM52.5473 267.675C51.8623 267.227 50.8838 267.28 50.2968 267.833C49.7423 268.387 49.8075 269.177 50.4924 269.652C52.9387 271.313 55.3849 272.92 57.7659 274.476C58.0594 274.66 58.4182 274.765 58.7443 274.765C59.2009 274.765 59.6576 274.607 59.9837 274.291C60.5382 273.737 60.4077 272.92 59.7228 272.499C57.3418 270.943 54.9282 269.362 52.482 267.701L52.5473 267.675ZM213.345 202.964C214.095 205.442 214.78 207.893 215.399 210.318C215.562 210.925 216.215 211.346 216.965 211.346C217.063 211.346 217.193 211.346 217.291 211.346C218.139 211.215 218.694 210.529 218.531 209.844C217.911 207.393 217.226 204.889 216.476 202.384C216.28 201.699 215.432 201.277 214.551 201.436C213.703 201.594 213.182 202.305 213.377 202.991L213.345 202.964ZM217.095 217.752C217.617 220.256 218.041 222.76 218.433 225.211C218.531 225.87 219.215 226.345 219.998 226.345C220.064 226.345 220.129 226.345 220.194 226.345C221.075 226.265 221.694 225.633 221.564 224.921C221.205 222.417 220.748 219.913 220.227 217.356C220.096 216.671 219.248 216.17 218.4 216.302C217.519 216.407 216.965 217.066 217.095 217.778V217.752ZM10.7008 3.58702C7.92841 2.42724 5.12347 1.26745 2.28587 0.134029C1.50309 -0.182276 0.557239 0.0813119 0.165846 0.713921C-0.225548 1.34653 0.100617 2.11093 0.883403 2.42724C3.68839 3.56066 6.49336 4.69409 9.23311 5.85387C9.46143 5.95931 9.72236 5.98566 9.95067 5.98566C10.5051 5.98566 11.0596 5.72208 11.3531 5.30034C11.7445 4.66773 11.451 3.90333 10.6682 3.56066L10.7008 3.58702ZM208.322 188.414C209.268 190.839 210.148 193.264 210.996 195.663C211.192 196.217 211.844 196.586 212.529 196.586C212.66 196.586 212.823 196.586 212.953 196.533C213.801 196.348 214.29 195.637 214.062 194.951C213.214 192.526 212.334 190.101 211.355 187.65C211.094 186.965 210.213 186.596 209.365 186.806C208.517 187.017 208.061 187.729 208.322 188.414ZM219.346 232.697C219.574 235.227 219.737 237.758 219.835 240.209C219.835 240.895 220.553 241.448 221.433 241.448H221.466C222.347 241.448 223.032 240.842 222.999 240.13C222.901 237.626 222.738 235.069 222.51 232.486C222.444 231.774 221.662 231.247 220.814 231.3C219.933 231.353 219.281 231.959 219.346 232.671V232.697ZM205.354 181.271C205.582 181.798 206.202 182.141 206.854 182.141C207.017 182.141 207.213 182.141 207.376 182.062C208.191 181.825 208.648 181.087 208.354 180.428C207.343 178.055 206.234 175.657 205.093 173.258C204.767 172.599 203.853 172.256 203.038 172.52C202.222 172.784 201.798 173.522 202.125 174.181C203.266 176.553 204.31 178.925 205.354 181.271ZM172.966 126.919C173.259 127.315 173.781 127.526 174.303 127.526C174.597 127.526 174.89 127.473 175.151 127.341C175.901 126.972 176.13 126.181 175.673 125.575C174.042 123.44 172.346 121.279 170.617 119.144C170.128 118.537 169.15 118.379 168.432 118.775C167.682 119.17 167.486 119.961 167.976 120.541C169.704 122.676 171.368 124.784 172.998 126.919H172.966ZM191.003 153.41C191.263 153.858 191.851 154.122 192.438 154.122C192.666 154.122 192.894 154.069 193.123 153.99C193.905 153.674 194.232 152.909 193.873 152.277C192.503 150.01 191.1 147.743 189.665 145.45C189.274 144.817 188.295 144.58 187.513 144.896C186.73 145.212 186.436 146.003 186.828 146.636C188.263 148.903 189.665 151.143 191.003 153.384V153.41ZM159.202 310.086C156.234 310.086 153.168 309.902 150.037 309.585C149.189 309.506 148.373 310.007 148.276 310.692C148.178 311.404 148.797 312.037 149.645 312.116C152.907 312.432 156.103 312.617 159.202 312.617C160.082 312.617 160.8 312.037 160.8 311.351C160.8 310.64 160.115 310.06 159.234 310.06L159.202 310.086ZM106.331 297.618C103.657 296.485 100.917 295.273 98.1772 293.981C97.427 293.638 96.4485 293.849 96.0245 294.455C95.6005 295.062 95.8614 295.852 96.6115 296.195C99.4165 297.513 102.189 298.726 104.896 299.885C105.124 299.991 105.385 300.017 105.614 300.017C106.168 300.017 106.723 299.754 107.016 299.332C107.407 298.699 107.114 297.935 106.331 297.592V297.618ZM193.318 301.335C190.905 302.838 188.361 304.155 185.654 305.289C184.871 305.605 184.577 306.396 184.969 307.029C185.262 307.477 185.817 307.714 186.371 307.714C186.632 307.714 186.86 307.661 187.089 307.582C189.926 306.396 192.699 304.973 195.243 303.391C195.928 302.969 196.058 302.152 195.536 301.599C194.982 301.045 194.003 300.94 193.318 301.361V301.335ZM200.755 167.881C201.57 167.617 201.962 166.853 201.603 166.194C200.396 163.874 199.157 161.528 197.852 159.209C197.493 158.576 196.547 158.286 195.765 158.576C194.949 158.866 194.623 159.631 194.982 160.263C196.286 162.583 197.526 164.876 198.7 167.196C198.961 167.696 199.548 167.986 200.168 167.986C200.363 167.986 200.592 167.96 200.787 167.881H200.755ZM185.197 138.755C183.697 136.54 182.131 134.326 180.533 132.112C180.109 131.506 179.13 131.295 178.38 131.664C177.63 132.033 177.369 132.797 177.826 133.404C179.424 135.591 180.957 137.779 182.425 139.993C182.718 140.415 183.24 140.652 183.827 140.652C184.088 140.652 184.349 140.6 184.577 140.494C185.36 140.152 185.621 139.361 185.197 138.755ZM215.693 276.4C214.845 276.163 213.964 276.505 213.671 277.19C212.627 279.589 211.453 281.882 210.148 284.07C209.757 284.703 210.083 285.467 210.898 285.783C211.127 285.863 211.355 285.915 211.583 285.915C212.17 285.915 212.725 285.652 213.018 285.204C214.388 282.937 215.595 280.538 216.671 278.06C216.965 277.401 216.541 276.663 215.693 276.426V276.4ZM221.499 246.509C220.553 246.483 219.9 247.036 219.868 247.748C219.77 250.305 219.607 252.809 219.313 255.234C219.248 255.945 219.868 256.552 220.748 256.631C220.781 256.631 220.846 256.631 220.879 256.631C221.694 256.631 222.379 256.13 222.444 255.471C222.738 252.993 222.901 250.41 222.999 247.827C222.999 247.115 222.347 246.535 221.466 246.509H221.499ZM177.271 308.03C174.434 308.742 171.433 309.269 168.367 309.612C167.486 309.717 166.899 310.35 166.997 311.061C167.095 311.694 167.78 312.169 168.563 312.169C168.628 312.169 168.693 312.169 168.791 312.169C172.02 311.799 175.216 311.246 178.217 310.508C179.065 310.297 179.522 309.585 179.261 308.9C179 308.215 178.119 307.846 177.271 308.057V308.03ZM219.998 261.612C219.15 261.507 218.302 261.982 218.172 262.667C217.683 265.171 217.03 267.649 216.313 269.995C216.084 270.68 216.606 271.365 217.454 271.55C217.585 271.55 217.715 271.576 217.846 271.576C218.563 271.576 219.215 271.181 219.379 270.601C220.129 268.176 220.748 265.645 221.27 263.062C221.401 262.351 220.814 261.692 219.966 261.586L219.998 261.612ZM207.832 290.106C207.115 289.711 206.104 289.869 205.647 290.475C203.951 292.558 202.059 294.535 200.07 296.301C199.483 296.828 199.515 297.645 200.168 298.119C200.461 298.33 200.853 298.462 201.244 298.462C201.668 298.462 202.092 298.33 202.418 298.04C204.538 296.169 206.528 294.086 208.322 291.899C208.811 291.319 208.615 290.502 207.865 290.133L207.832 290.106ZM130.174 77.0488C128.053 75.1773 125.901 73.3322 123.716 71.4871C123.096 70.9863 122.117 70.9599 121.465 71.4607C120.845 71.9615 120.813 72.7523 121.432 73.2795C123.618 75.0982 125.738 76.9433 127.825 78.7884C128.151 79.052 128.575 79.2102 128.999 79.2102C129.391 79.2102 129.782 79.1047 130.076 78.8675C130.728 78.3931 130.761 77.5759 130.174 77.0488ZM123.292 303.813C120.487 302.917 117.616 301.941 114.746 300.887C113.963 300.597 113.017 300.887 112.626 301.52C112.267 302.152 112.626 302.917 113.409 303.207C116.344 304.287 119.28 305.289 122.15 306.211C122.346 306.264 122.541 306.291 122.737 306.291C123.357 306.291 123.977 305.974 124.205 305.473C124.531 304.814 124.107 304.076 123.292 303.813ZM115.986 68.245C116.377 68.245 116.801 68.1132 117.094 67.8759C117.714 67.3751 117.714 66.558 117.094 66.0572C114.877 64.2648 112.626 62.4988 110.343 60.7327C109.723 60.2319 108.712 60.2583 108.092 60.7854C107.473 61.2863 107.505 62.1034 108.158 62.6042C110.441 64.3439 112.659 66.1099 114.877 67.8759C115.17 68.1132 115.594 68.245 115.986 68.245ZM159.985 106.544C159.463 105.964 158.484 105.832 157.767 106.254C157.049 106.676 156.886 107.467 157.408 108.047C159.234 110.103 161.061 112.159 162.79 114.215C163.083 114.584 163.605 114.768 164.094 114.768C164.42 114.768 164.714 114.689 165.007 114.531C165.725 114.135 165.921 113.318 165.399 112.738C163.638 110.656 161.811 108.574 159.952 106.518L159.985 106.544ZM153.103 102.485C153.429 102.485 153.788 102.406 154.049 102.221C154.733 101.8 154.897 100.982 154.342 100.429C152.45 98.4257 150.526 96.4224 148.536 94.4192C147.982 93.8656 147.003 93.7865 146.319 94.2083C145.634 94.6564 145.536 95.4471 146.058 96.0007C148.015 97.9776 149.939 99.9808 151.798 101.958C152.124 102.3 152.581 102.459 153.07 102.459L153.103 102.485ZM141.002 308.267C138.099 307.74 135.099 307.081 132.065 306.317C131.217 306.106 130.337 306.475 130.076 307.16C129.815 307.846 130.271 308.557 131.119 308.768C134.218 309.559 137.316 310.218 140.317 310.772C140.448 310.772 140.545 310.798 140.676 310.798C141.393 310.798 142.046 310.402 142.209 309.796C142.405 309.111 141.85 308.426 141.002 308.267ZM136.468 82.7159C135.881 82.1887 134.87 82.136 134.218 82.6105C133.566 83.0849 133.5 83.8757 134.087 84.4292C136.142 86.327 138.197 88.2512 140.187 90.1754C140.513 90.4917 140.937 90.6235 141.393 90.6235C141.752 90.6235 142.111 90.5181 142.405 90.3336C143.089 89.8855 143.155 89.0683 142.6 88.5148C140.611 86.5643 138.556 84.6401 136.468 82.7159Z" fill="white"/>
</svg>
